<?xml version="1.0" encoding="UTF-8"?>
<svg version="1.1" xmlns="http://www.w3.org/2000/svg" width="3334" height="2292">
<path d="M0 0 C1.05203613 0.5273877 2.10407227 1.05477539 3.18798828 1.59814453 C38.65189563 19.47788688 71.69599508 41.24722405 102.28076172 66.58496094 C103.81171112 67.84502665 105.35980647 69.08419469 106.91015625 70.3203125 C113.73964275 75.77183192 120.08813049 81.66205037 126.4375 87.65625 C129.26695259 90.32487055 132.14475227 92.92777503 135.0625 95.5 C143.5812622 103.12130063 151.84956189 111.22829225 159.23828125 119.95703125 C161.09071375 122.10519577 163.00836554 124.18605697 164.93847656 126.2644043 C170.55179049 132.31369451 175.8421324 138.55479684 181 145 C181.92240375 146.13083957 182.84562196 147.26101515 183.76953125 148.390625 C225.62925006 199.80716695 256.95621597 259.2662238 278 322 C278.34869141 323.0327002 278.69738281 324.06540039 279.05664062 325.12939453 C292.61334408 365.7671036 300.40524412 408.36091852 304 451 C304.0942627 452.0319751 304.18852539 453.0639502 304.28564453 454.12719727 C305.35544336 467.45375203 305.24382876 480.82676744 305.25 494.1875 C305.25101212 496.15660843 305.25101212 496.15660843 305.25204468 498.16549683 C305.24417967 519.26311089 304.58484299 540.05999508 302 561 C301.9175 561.6863855 301.835 562.372771 301.75 563.07995605 C297.11291519 601.55215438 288.24987005 639.25038986 276 676 C478.455 676.495 478.455 676.495 685 677 C684.36020065 681.47859547 683.77320051 685.22839134 682.55052185 689.47398376 C682.25374731 690.51312613 681.95697277 691.55226849 681.65120506 692.62290001 C681.32601198 693.74370775 681.0008189 694.8645155 680.66577148 696.01928711 C680.15071517 697.81547202 680.15071517 697.81547202 679.62525368 699.6479435 C678.87710553 702.25451152 678.12728758 704.86052778 677.37452888 707.46576118 C676.15859378 711.67402927 674.94907224 715.88412514 673.74034119 720.09446716 C672.02716305 726.05984099 670.31116183 732.02439603 668.59344482 737.98846436 C666.11479623 746.5957793 663.64584954 755.20585499 661.18017578 763.81689453 C660.78056502 765.21234896 660.38095195 766.60780273 659.98133659 768.00325584 C659.37869462 770.10770084 658.77605835 772.21214746 658.17345178 774.31660259 C655.8896699 782.29169126 653.60308906 790.26597709 651.31640625 798.24023438 C650.88739991 799.73633609 650.45839461 801.23243811 650.02939034 802.72854042 C649.37612065 805.00673147 648.72284756 807.28492153 648.0695647 809.5631088 C645.76175594 817.61114241 643.45431391 825.65928115 641.14689088 833.70742536 C639.94558214 837.89751258 638.74426171 842.08759645 637.54293823 846.27767944 C637.3031968 847.11387105 637.06345537 847.95006266 636.81644905 848.81159341 C635.11166092 854.7576802 633.40681338 860.70374994 631.70193481 866.64981079 C625.18475186 889.37963472 618.66822244 912.1096459 612.15234375 934.83984375 C611.82192829 935.99247393 611.82192829 935.99247393 611.48483777 937.16838956 C609.48692349 944.13796956 607.48901768 951.107552 605.49112415 958.07713795 C602.37116146 968.96102455 599.25115049 979.84489732 596.13110352 990.72875977 C595.79825248 991.88986576 595.79825248 991.88986576 595.45867717 993.07442844 C594.33755996 996.98529382 593.21644194 1000.89615896 592.09532356 1004.807024 C590.07913667 1011.8402121 588.06295695 1018.87340226 586.04677665 1025.90659225 C584.92701806 1029.81272825 583.80725901 1033.71886412 582.6875 1037.625 C582.23958333 1039.1875 581.79166666 1040.75 581.34375 1042.3125 C535.65622436 1201.68758942 535.65622436 1201.68758942 534.98437661 1204.03124434 C534.53645454 1205.5937632 534.08853251 1207.15628208 533.64061052 1208.71880096 C532.52090173 1212.62476241 531.40119235 1216.53072368 530.28148174 1220.43668461 C528.26486641 1227.47138009 526.24825526 1234.50607678 524.23166651 1241.54077989 C523.11058336 1245.45158523 521.98949671 1249.36238956 520.8684082 1253.27319336 C520.64648446 1254.04735214 520.42456071 1254.82151092 520.195912 1255.61912906 C517.08023276 1266.48783828 513.96435805 1277.35649145 510.84835732 1288.2251085 C508.85068306 1295.19302826 506.85306739 1302.16096481 504.85546875 1309.12890625 C504.63544307 1309.89638664 504.4154174 1310.66386702 504.18872428 1311.45460439 C497.62629541 1334.34537202 491.06690865 1357.23700967 484.50954139 1380.12922776 C482.79735182 1386.1065205 481.08495025 1392.08375247 479.37240601 1398.0609436 C479.13217984 1398.89939107 478.89195367 1399.73783854 478.64444792 1400.60169351 C477.44127824 1404.8010153 476.23807979 1409.00032885 475.03486061 1413.19963646 C472.51016108 1422.01114701 469.98613525 1430.82284993 467.46307975 1439.63483137 C465.73965406 1445.65381333 464.01536642 1451.672548 462.29050034 1457.69111735 C461.30866553 1461.11713162 460.32713027 1464.54323058 459.34670448 1467.96964836 C451.32259529 1496.00667054 443.14613954 1523.99764534 435 1552 C-13.14 1552 -461.28 1552 -923 1552 C-950.49289559 1459.2114774 -950.49289559 1459.2114774 -959.66647339 1427.88247681 C-961.91344091 1420.21077029 -964.16370349 1412.54002877 -966.41315079 1404.86904907 C-967.26974117 1401.94780224 -968.12619753 1399.02651613 -968.9826355 1396.10522461 C-974.55309799 1377.10604551 -980.14032267 1358.11180788 -985.7295723 1339.1181488 C-994.38069766 1309.71898076 -1003.01895191 1280.31606135 -1011.64627838 1250.90990067 C-1020.62934918 1220.29120351 -1029.6196547 1189.67465393 -1038.625 1159.0625 C-1039.0091507 1157.75664444 -1039.0091507 1157.75664444 -1039.40106201 1156.42440796 C-1041.72181677 1148.53550352 -1044.04273974 1140.64664858 -1046.36383057 1132.75784302 C-1049.99063948 1120.43121281 -1053.61669026 1108.10435981 -1057.2421875 1095.77734375 C-1057.50019135 1094.90011154 -1057.75819519 1094.02287933 -1058.02401733 1093.11906433 C-1060.11022457 1086.02578875 -1062.19638707 1078.93250001 -1064.282547 1071.83921051 C-1066.10761433 1065.6336862 -1067.93270185 1059.42816782 -1069.7578125 1053.22265625 C-1070.14487869 1051.90659645 -1070.14487869 1051.90659645 -1070.5397644 1050.56394958 C-1074.16174023 1038.24899142 -1077.78450056 1025.93426426 -1081.40776825 1013.61968613 C-1092.73671947 975.11494611 -1104.05325998 936.60659684 -1115.35282898 898.09322357 C-1123.76732668 869.4135006 -1132.18990826 840.73617305 -1140.625 812.0625 C-1140.88110046 811.19192963 -1141.13720093 810.32135925 -1141.40106201 809.42440796 C-1143.72181677 801.53550352 -1146.04273974 793.64664858 -1148.36383057 785.75784302 C-1152.51301966 771.65577122 -1156.66127716 757.55342558 -1160.80865479 743.45082092 C-1163.14365822 735.51103763 -1165.47884057 727.57130742 -1167.81542587 719.63198948 C-1169.10368061 715.25470894 -1170.39173654 710.87736993 -1171.6796875 706.5 C-1171.93530205 705.63125181 -1172.1909166 704.76250362 -1172.45427704 703.86742973 C-1176.02755565 691.72159796 -1179.59135465 679.57301618 -1183.14862061 667.42248535 C-1185.14572491 660.60114477 -1187.14535678 653.78054584 -1189.14553452 646.9601059 C-1190.50547878 642.3220854 -1191.86400116 637.68365909 -1193.21899414 633.04418945 C-1202.36533563 599.38683057 -1202.36533563 599.38683057 -1215.3125 567.125 C-1215.77760986 566.17085205 -1216.24271973 565.2167041 -1216.72192383 564.23364258 C-1224.78231156 548.05964972 -1235.70740064 534.18246767 -1248 521 C-1248.72445313 520.20980469 -1249.44890625 519.41960938 -1250.1953125 518.60546875 C-1278.10798896 489.32081328 -1321.47157343 469.27674263 -1361.96730042 467.8613348 C-1363.38254785 467.84996216 -1364.79784295 467.84370462 -1366.21313477 467.84178162 C-1367.39332561 467.83437465 -1367.39332561 467.83437465 -1368.5973587 467.82681805 C-1371.21203926 467.81156087 -1373.82669549 467.80311468 -1376.44140625 467.79467773 C-1378.32433788 467.78508993 -1380.20726739 467.77507932 -1382.0901947 467.76467896 C-1387.18665231 467.73772161 -1392.28311908 467.71666258 -1397.37960815 467.69667697 C-1402.7114223 467.67476064 -1408.04320846 467.64739965 -1413.375 467.62062073 C-1423.46472733 467.57077004 -1433.55447025 467.52580301 -1443.64422798 467.48259836 C-1457.28331475 467.42391242 -1470.92236467 467.35766663 -1484.56141853 467.29184818 C-1506.04092084 467.18839279 -1527.52045491 467.09502434 -1549 467 C-1549 433.67 -1549 400.34 -1549 366 C-1503.86507979 365.91939393 -1503.86507979 365.91939393 -1484.81445312 365.90234375 C-1471.70937518 365.89051992 -1458.60432313 365.8766919 -1445.49926758 365.84912109 C-1435.95093687 365.82904279 -1426.40262736 365.81624971 -1416.85427612 365.81182301 C-1411.80925775 365.8092398 -1406.76429997 365.80326853 -1401.71930122 365.78853989 C-1328.13161398 365.58239409 -1259.46932215 379.54113462 -1201 427 C-1200.4234668 427.46615723 -1199.84693359 427.93231445 -1199.25292969 428.41259766 C-1187.44434588 438.02479871 -1175.68207557 448.21793087 -1166 460 C-1165.20851563 460.90363281 -1164.41703125 461.80726563 -1163.6015625 462.73828125 C-1151.94198211 476.08391797 -1141.59374157 490.49694624 -1133 506 C-1132.54270508 506.82032715 -1132.08541016 507.6406543 -1131.61425781 508.48583984 C-1103.06330545 560.1768027 -1091.28152768 620.07649188 -1075 676 C-975.67 676.33 -876.34 676.66 -774 677 C-777.63 665.12 -781.26 653.24 -785 641 C-795.45063894 599.80327837 -803.06500101 557.54705672 -803.203125 514.91796875 C-803.20595238 514.22178247 -803.20877975 513.5255962 -803.21169281 512.80831337 C-803.22656303 509.10682446 -803.23586288 505.40537314 -803.24023438 501.70385742 C-803.24456855 498.72684126 -803.25827871 495.75012321 -803.28125 492.77319336 C-803.44305554 471.33976879 -802.3964858 450.30258571 -800 429 C-799.89757996 428.082117 -799.79515991 427.16423401 -799.68963623 426.21853638 C-799.15257374 421.52680924 -798.5199779 416.85710379 -797.8125 412.1875 C-797.71184235 411.5132901 -797.61118469 410.8390802 -797.50747681 410.1444397 C-783.10263024 314.5822846 -742.37286511 221.82362224 -674 139 C-672.99346842 137.79689271 -671.98695721 136.59376837 -670.98046875 135.390625 C-660.1234342 122.49087293 -648.45740324 110.37849051 -636.5625 98.4375 C-635.73427734 97.60460449 -634.90605469 96.77170898 -634.05273438 95.91357422 C-629.73884219 91.6109795 -625.35136516 87.4627032 -620.73120117 83.49047852 C-618.56604091 81.62638271 -616.47365106 79.68839043 -614.375 77.75 C-609.33313661 73.2007767 -604.04817302 69.0309728 -598.68359375 64.875 C-596.25295809 62.98957165 -593.85161533 61.07520473 -591.47265625 59.125 C-567.02709794 39.11891834 -539.99771637 22.3474467 -512.29736328 7.25292969 C-510.80145469 6.43709516 -509.30752682 5.61761485 -507.81591797 4.79394531 C-430.88975047 -37.60138329 -340.34834301 -58.90579406 0 0 Z M-292 71 C-293.02697231 72.12172274 -294.02037689 73.27419755 -295 74.4375 C-297.71731149 77.59470413 -300.53180735 80.57755004 -303.5 83.5 C-307.54849668 87.50767151 -311.3045513 91.66815309 -315 96 C-315.90428762 97.04093857 -316.80929531 98.08125183 -317.71484375 99.12109375 C-324.17825368 106.56624724 -330.41212025 114.15027092 -336.42626953 121.96240234 C-338.16875069 124.21849104 -339.92660968 126.46222148 -341.68359375 128.70703125 C-351.79502392 141.71154767 -361.03673858 155.18384108 -370 169 C-370.51836426 169.79809082 -371.03672852 170.59618164 -371.57080078 171.41845703 C-374.06601763 175.2671271 -376.54452402 179.12580457 -379 183 C-358.43535529 196.70976314 -316.0220502 201 -291 201 C-291 158.1 -291 115.2 -291 71 C-291.33 71 -291.66 71 -292 71 Z M-191 72 C-191 113.91 -191 155.82 -191 199 C-172.99873745 196.6206446 -172.99873745 196.6206446 -155.25 193.25 C-154.09532227 192.99758545 -152.94064453 192.7451709 -151.75097656 192.48510742 C-136.6946961 189.12801908 -121.37007502 185.68958712 -107 180 C-108.42726473 176.04209204 -110.31306634 172.7727976 -112.640625 169.2734375 C-112.99927139 168.73267075 -113.35791779 168.19190399 -113.72743225 167.63475037 C-114.8960077 165.87767668 -116.07224234 164.12593008 -117.25 162.375 C-117.85441422 161.47278214 -117.85441422 161.47278214 -118.47103882 160.55233765 C-129.10647093 144.68988697 -140.3836917 129.44677446 -152.56738281 114.73681641 C-154.62882132 112.23765595 -156.65416707 109.70954629 -158.6875 107.1875 C-162.52626775 102.49645537 -166.56220429 98.01234087 -170.6640625 93.55078125 C-172.64118858 91.39181248 -174.58167885 89.21102273 -176.5 87 C-179.42722152 83.63859729 -182.39044495 80.31052773 -185.375 77 C-186.22835938 76.05125 -187.08171875 75.1025 -187.9609375 74.125 C-188.63382813 73.42375 -189.30671875 72.7225 -190 72 C-190.33 72 -190.66 72 -191 72 Z M-445.1875 85.6875 C-445.79135529 85.97866699 -446.39521057 86.26983398 -447.0173645 86.56982422 C-466.53605284 96.0125125 -484.99258869 106.93115142 -503 119 C-503.99 119.66 -504.98 120.32 -506 121 C-504.60137556 124.38702483 -503.17258179 125.8567824 -500.0703125 127.76953125 C-499.27987549 128.26291992 -498.48943848 128.75630859 -497.67504883 129.26464844 C-496.83353271 129.77543945 -495.9920166 130.28623047 -495.125 130.8125 C-494.27252686 131.34004883 -493.42005371 131.86759766 -492.54174805 132.41113281 C-486.0931209 136.38495386 -479.58980976 140.26445914 -473 144 C-470.47216358 141.68309004 -468.81284489 139.25195613 -467.06640625 136.30859375 C-466.22601807 134.90504639 -466.22601807 134.90504639 -465.36865234 133.47314453 C-464.77262207 132.47138184 -464.1765918 131.46961914 -463.5625 130.4375 C-454.87108997 116.00286748 -445.61097157 102.04812188 -435.74365234 88.39111328 C-435.26750488 87.72708496 -434.79135742 87.06305664 -434.30078125 86.37890625 C-433.87966064 85.7969751 -433.45854004 85.21504395 -433.0246582 84.61547852 C-431.81852931 82.85740794 -431.81852931 82.85740794 -431 80 C-435.82653861 80 -440.92077644 83.62992966 -445.1875 85.6875 Z M-44 91 C-42.53294986 94.08771113 -40.82586285 96.9006285 -38.9453125 99.75390625 C-38.03084351 101.1469397 -38.03084351 101.1469397 -37.09790039 102.56811523 C-36.44684326 103.55626221 -35.79578613 104.54440918 -35.125 105.5625 C-28.29927997 115.96946821 -21.60824265 126.45388464 -15 137 C-9.70742933 135.02872519 -5.35928793 132.12681623 -0.6875 129 C0.14845703 128.4534375 0.98441406 127.906875 1.84570312 127.34375 C2.63525391 126.8178125 3.42480469 126.291875 4.23828125 125.75 C4.96055908 125.27046875 5.68283691 124.7909375 6.42700195 124.296875 C6.94609131 123.86890625 7.46518066 123.4409375 8 123 C8 122.34 8 121.68 8 121 C5.70167737 119.31373068 3.40651088 117.77021449 1 116.25 C0.25540527 115.77481934 -0.48918945 115.29963867 -1.25634766 114.81005859 C-7.88653721 110.62165047 -14.61573615 106.60091362 -21.375 102.625 C-22.35984375 102.04266602 -23.3446875 101.46033203 -24.359375 100.86035156 C-30.73986343 97.14624017 -37.2203278 93.92167247 -44 91 Z M-585 190 C-592.23300962 197.63872969 -598.9729154 205.50207295 -605.359375 213.86474609 C-606.63602936 215.52629655 -607.92497452 217.17840614 -609.21875 218.82666016 C-615.4719011 226.81772688 -621.27013152 235.04371057 -626.875 243.5 C-627.30787323 244.15096649 -627.74074646 244.80193298 -628.18673706 245.47262573 C-635.64408879 256.70789854 -642.58645868 268.13341082 -649 280 C-649.45101074 280.81597656 -649.90202148 281.63195312 -650.36669922 282.47265625 C-680.14661614 336.36112892 -695.59164375 396.12061562 -702 457 C-657.78 457 -613.56 457 -568 457 C-566.81895683 453.45687048 -566.55597767 450.02277171 -566.23828125 446.328125 C-566.09160085 444.71786491 -565.94410162 443.10767925 -565.79589844 441.49755859 C-565.67885559 440.21736847 -565.67885559 440.21736847 -565.55944824 438.91131592 C-559.41693832 372.71461296 -545.59242391 304.88632473 -519.45092773 243.49267578 C-518.93767944 242.26653564 -518.93767944 242.26653564 -518.4140625 241.015625 C-518.1145166 240.32758789 -517.8149707 239.63955078 -517.50634766 238.93066406 C-516.86931176 236.50169597 -516.99066672 235.30019729 -518 233 C-519.73893371 231.55879452 -519.73893371 231.55879452 -521.98828125 230.44140625 C-522.8297168 229.97992188 -523.67115234 229.5184375 -524.53808594 229.04296875 C-525.45364258 228.55441406 -526.36919922 228.06585938 -527.3125 227.5625 C-542.99359765 218.89902862 -557.75060944 209.01895224 -572.3203125 198.61328125 C-576.48206678 195.64379605 -580.71260661 192.78497349 -585 190 Z M82.703125 192.3515625 C81.6519751 193.12342896 81.6519751 193.12342896 80.57958984 193.91088867 C79.8108252 194.47654541 79.04206055 195.04220215 78.25 195.625 C62.95433519 206.77030733 47.12590869 217.10092734 31 227 C32.93068792 232.91435583 34.99139812 238.76149119 37.1875 244.58203125 C60.83757812 307.81622197 76.28571417 372.13577375 82.74487305 439.37207031 C82.82253403 440.17717041 82.90019501 440.98227051 82.98020935 441.81176758 C83.12433942 443.31753167 83.26592285 444.82354265 83.4044342 446.32983398 C83.74992408 449.97003276 84.28003862 453.40019308 85 457 C123.94 457 162.88 457 203 457 C203 369.82942543 158.73015119 274.56488375 103 209 C102.05955864 207.88570117 101.11947411 206.7711011 100.1796875 205.65625 C98.31650614 203.44838934 96.44928613 201.24406892 94.578125 199.04296875 C93.24031135 197.46394325 91.90446472 195.8829726 90.59570312 194.27978516 C89.41694497 192.83677885 88.21084934 191.41618568 87 190 C85.25110673 190 84.07146643 191.33838774 82.703125 192.3515625 Z M-67.66796875 271.90625 C-102.87002938 284.0694374 -138.76327545 292.44577336 -175.67871094 297.44018555 C-176.40362228 297.53834564 -177.12853363 297.63650574 -177.87541199 297.73764038 C-179.84755981 298.00271702 -181.8203666 298.26287786 -183.79321289 298.52270508 C-187.1554783 298.97011075 -187.1554783 298.97011075 -191 300 C-191 351.81 -191 403.62 -191 457 C-133.25 457 -75.5 457 -16 457 C-16.83823781 441.46228715 -16.83823781 441.46228715 -18.5090332 426.04150391 C-18.60866364 425.3123175 -18.70829407 424.5831311 -18.8109436 423.83184814 C-18.91458221 423.08296326 -19.01822083 422.33407837 -19.125 421.5625 C-19.2322641 420.77752136 -19.3395282 419.99254272 -19.45004272 419.18377686 C-26.27843745 369.65076903 -37.46612425 315.06775151 -60 270 C-62.81079516 270 -65.01342314 270.97498786 -67.66796875 271.90625 Z M-425 275 C-443.18499517 323.22391313 -456.978105 371.78723226 -463.9375 422.9375 C-464.09057114 424.05475464 -464.09057114 424.05475464 -464.24673462 425.19458008 C-465.67634388 435.79049014 -466.3704325 446.29735246 -467 457 C-408.92 457 -350.84 457 -291 457 C-291 405.52 -291 354.04 -291 301 C-302.88 299.68 -314.76 298.36 -327 297 C-356.11697146 292.41865834 -384.46515558 286.63524198 -412.59692383 277.84448242 C-414.38005981 277.28917847 -414.38005981 277.28917847 -416.19921875 276.72265625 C-417.24940186 276.39015869 -418.29958496 276.05766113 -419.3815918 275.71508789 C-422.02995326 274.86827387 -422.02995326 274.86827387 -425 275 Z M-699 557 C-698.69917445 559.67144635 -698.39467464 562.3423918 -698.08813477 565.01318359 C-698.00455971 565.75874008 -697.92098465 566.50429657 -697.83487701 567.27244568 C-696.96352543 574.81647891 -695.54517147 582.20296169 -693.9375 589.625 C-693.7876062 590.32388336 -693.6377124 591.02276672 -693.48327637 591.74282837 C-687.16964535 620.98510361 -678.15574671 649.6495699 -666 677 C-627.39 677 -588.78 677 -549 677 C-551.74389307 663.26162478 -551.74389307 663.26162478 -554.52734375 649.53125 C-560.00642081 622.43994113 -563.80866203 595.17973312 -566.1003418 567.63500977 C-566.25950073 565.7525354 -566.25950073 565.7525354 -566.421875 563.83203125 C-566.51049805 562.72577393 -566.59912109 561.6195166 -566.69042969 560.47973633 C-566.73469022 558.06062147 -566.73469022 558.06062147 -568 557 C-569.69558703 556.90380559 -571.3952084 556.87812341 -573.09352112 556.87974548 C-574.19714996 556.87837082 -575.30077881 556.87699615 -576.43785095 556.87557983 C-578.26987816 556.88097275 -578.26987816 556.88097275 -580.13891602 556.88647461 C-581.41677979 556.88632858 -582.69464355 556.88618256 -584.01123047 556.8860321 C-587.52553591 556.88574415 -591.0398075 556.8916406 -594.55410504 556.89860606 C-598.22299356 556.90483988 -601.89188277 556.90544342 -605.56077576 556.90663147 C-612.51290435 556.9097447 -619.4650173 556.91795798 -626.41713899 556.92798096 C-634.3299478 556.93914234 -642.24275734 556.94465261 -650.15557206 556.94967639 C-666.43705721 556.9601406 -682.71852661 556.97773989 -699 557 Z M-467 557 C-466.25573516 568.7884974 -466.25573516 568.7884974 -465.01953125 580.46875 C-464.92655258 581.18406387 -464.83357391 581.89937775 -464.73777771 582.6363678 C-464.43667131 584.92529874 -464.12619681 587.21276219 -463.8125 589.5 C-463.70329224 590.30057831 -463.59408447 591.10115662 -463.48156738 591.92599487 C-460.32609255 614.87230196 -455.79173153 637.40653368 -450.1875 659.875 C-449.98668823 660.68019073 -449.78587646 661.48538147 -449.57897949 662.31497192 C-449.00995445 664.58381203 -448.43449619 666.85088155 -447.85546875 669.1171875 C-447.68280991 669.80097977 -447.51015106 670.48477203 -447.33226013 671.18928528 C-446.69115582 674.36132687 -446.69115582 674.36132687 -445 677 C-443.01305149 677.096708 -441.02260987 677.12187052 -439.03330994 677.12025452 C-437.73615555 677.12162918 -436.43900116 677.12300385 -435.10253906 677.12442017 C-433.6516111 677.12088055 -432.20068337 677.11724573 -430.74975586 677.11352539 C-429.23238629 677.11324353 -427.71501658 677.11340123 -426.19764709 677.1139679 C-422.06559484 677.11425591 -417.93357137 677.10835858 -413.80152583 677.10139394 C-409.48801108 677.09516102 -405.17449573 677.09455665 -400.86097717 677.09336853 C-392.68699883 677.09025503 -384.51303379 677.08204139 -376.33906132 677.07201904 C-365.29760874 677.05877341 -354.25615254 677.05335815 -343.21469402 677.04751682 C-325.80978604 677.03810151 -308.40490614 677.01818272 -291 677 C-291 637.4 -291 597.8 -291 557 C-349.08 557 -407.16 557 -467 557 Z M-191 557 C-191 596.6 -191 636.2 -191 677 C-140.51 677 -90.02 677 -38 677 C-26.75762331 647.02032882 -22.00251968 613.78294571 -18.0625 582.125 C-17.95468201 581.26120728 -17.84686401 580.39741455 -17.73577881 579.50744629 C-17.43273264 577.05001309 -17.13790042 574.59178797 -16.84765625 572.1328125 C-16.71698006 571.05083084 -16.71698006 571.05083084 -16.58366394 569.94699097 C-16.08263325 565.55305782 -16 561.4668923 -16 557 C-73.75 557 -131.5 557 -191 557 Z M85 557 C83.81535774 560.55392679 83.55559071 564.00096994 83.23828125 567.70703125 C83.09164095 569.32242171 82.94414017 570.93773423 82.79589844 572.55297852 C82.71786987 573.40852325 82.63984131 574.26406799 82.55944824 575.14553833 C79.36808348 609.61125241 72.98349528 642.95546049 66 677 C99.33 677 132.66 677 167 677 C180.12950029 650.74099942 188.55373221 622.05700423 194.875 593.4375 C195.14916748 592.20362549 195.42333496 590.96975098 195.70581055 589.69848633 C198.01742749 578.81501194 199.41584951 568.08905346 201 557 C162.72 557 124.44 557 85 557 Z " fill="#2B3036" transform="translate(2023,126)"/>
<path d="M0 0 C1.05203613 0.5273877 2.10407227 1.05477539 3.18798828 1.59814453 C38.65189563 19.47788688 71.69599508 41.24722405 102.28076172 66.58496094 C103.81171112 67.84502665 105.35980647 69.08419469 106.91015625 70.3203125 C113.73964275 75.77183192 120.08813049 81.66205037 126.4375 87.65625 C129.26695259 90.32487055 132.14475227 92.92777503 135.0625 95.5 C143.5812622 103.12130063 151.84956189 111.22829225 159.23828125 119.95703125 C161.09071375 122.10519577 163.00836554 124.18605697 164.93847656 126.2644043 C170.55179049 132.31369451 175.8421324 138.55479684 181 145 C181.92240375 146.13083957 182.84562196 147.26101515 183.76953125 148.390625 C225.62925006 199.80716695 256.95621597 259.2662238 278 322 C278.34869141 323.0327002 278.69738281 324.06540039 279.05664062 325.12939453 C292.61334408 365.7671036 300.40524412 408.36091852 304 451 C304.0942627 452.0319751 304.18852539 453.0639502 304.28564453 454.12719727 C305.35544336 467.45375203 305.24382876 480.82676744 305.25 494.1875 C305.25101212 496.15660843 305.25101212 496.15660843 305.25204468 498.16549683 C305.24417967 519.26311089 304.58484299 540.05999508 302 561 C301.9175 561.6863855 301.835 562.372771 301.75 563.07995605 C298.15156838 592.93482843 291.99938137 622.2774711 283.75 651.1875 C283.43743759 652.28540359 283.43743759 652.28540359 283.11856079 653.40548706 C280.7998147 661.4916971 278.13970398 669.15074004 275 677 C239.36 677 203.72 677 167 677 C170.3 668.42 173.6 659.84 177 651 C186.46700838 624.66473439 193.35517932 598.12682867 198.13574219 570.57299805 C198.31367813 569.54810272 198.31367813 569.54810272 198.49520874 568.50250244 C198.81579673 566.64409706 199.13145281 564.78484281 199.44677734 562.92553711 C200 560 200 560 201 557 C162.72 557 124.44 557 85 557 C83.515 573.83 83.515 573.83 82 591 C81.33352655 596.90170484 80.65132839 602.75245926 79.8125 608.625 C79.71383636 609.33097321 79.61517273 610.03694641 79.51351929 610.76431274 C76.8533938 629.65806434 72.9945526 648.34929581 69 667 C68.7427565 668.2302037 68.7427565 668.2302037 68.48031616 669.48526001 C68.30594025 670.30199188 68.13156433 671.11872375 67.9519043 671.96020508 C67.79384811 672.70845047 67.63579193 673.45669586 67.47294617 674.22761536 C67 676 67 676 66 677 C64.6465941 677.09531163 63.28826016 677.1218872 61.9315033 677.12025452 C61.05505661 677.12162918 60.17860992 677.12300385 59.27560425 677.12442017 C58.30672272 677.12082489 57.33784119 677.11722961 56.33959961 677.11352539 C54.81782356 677.11374443 54.81782356 677.11374443 53.26530457 677.1139679 C49.89429627 677.11326829 46.52334246 677.10547368 43.15234375 677.09765625 C40.82206757 677.09579224 38.491791 677.09436826 36.16151428 677.09336853 C30.01462735 677.08954202 23.86776387 677.0797106 17.72088623 677.06866455 C11.45390134 677.05845329 5.18691268 677.05387152 -1.08007812 677.04882812 C-13.38672908 677.03808845 -25.69336259 677.02101044 -38 677 C-37.74667404 676.00273392 -37.49334808 675.00546783 -37.23234558 673.97798157 C-36.27009706 670.18550861 -35.31304074 666.39173965 -34.35734558 662.59761047 C-33.94738814 660.97293847 -33.53612572 659.34859505 -33.12339783 657.72462463 C-24.68692464 624.51482025 -20.35572432 591.11984052 -16 557 C-73.75 557 -131.5 557 -191 557 C-191 596.6 -191 636.2 -191 677 C-224 677 -257 677 -291 677 C-291 637.4 -291 597.8 -291 557 C-349.08 557 -407.16 557 -467 557 C-462.29183195 594.85139024 -462.29183195 594.85139024 -455.625 632.375 C-455.36944336 633.62974121 -455.11388672 634.88448242 -454.85058594 636.17724609 C-451.95624624 649.89488374 -448.40610013 663.37559949 -445 677 C-479.32 677 -513.64 677 -549 677 C-553.51709488 660.06089419 -553.51709488 660.06089419 -554.74609375 653.92578125 C-554.88231644 653.24619858 -555.01853912 652.56661591 -555.15888977 651.86643982 C-555.59262089 649.68318785 -556.0165692 647.49825408 -556.4375 645.3125 C-556.66052795 644.1612262 -556.66052795 644.1612262 -556.88806152 642.98669434 C-559.1412626 631.28288303 -561.09395328 619.55282328 -562.75 607.75 C-562.84473602 607.08803619 -562.93947205 606.42607239 -563.03707886 605.74404907 C-565.28200136 589.88571482 -566.50418112 573.95540143 -568 558 C-611.23 557.67 -654.46 557.34 -699 557 C-691.44938299 596.9104042 -682.99999767 634.32999525 -667.36328125 671.58984375 C-666 675 -666 675 -666 677 C-701.64 677 -737.28 677 -774 677 C-790.18774465 624.02192661 -803.02273287 570.59223775 -803.203125 514.91796875 C-803.20595238 514.22178247 -803.20877975 513.5255962 -803.21169281 512.80831337 C-803.22656303 509.10682446 -803.23586288 505.40537314 -803.24023438 501.70385742 C-803.24456855 498.72684126 -803.25827871 495.75012321 -803.28125 492.77319336 C-803.44305554 471.33976879 -802.3964858 450.30258571 -800 429 C-799.89757996 428.082117 -799.79515991 427.16423401 -799.68963623 426.21853638 C-799.15257374 421.52680924 -798.5199779 416.85710379 -797.8125 412.1875 C-797.66151352 411.17618515 -797.66151352 411.17618515 -797.50747681 410.1444397 C-783.10263024 314.5822846 -742.37286511 221.82362224 -674 139 C-672.99346842 137.79689271 -671.98695721 136.59376837 -670.98046875 135.390625 C-660.1234342 122.49087293 -648.45740324 110.37849051 -636.5625 98.4375 C-635.73427734 97.60460449 -634.90605469 96.77170898 -634.05273438 95.91357422 C-629.73884219 91.6109795 -625.35136516 87.4627032 -620.73120117 83.49047852 C-618.56604091 81.62638271 -616.47365106 79.68839043 -614.375 77.75 C-609.33313661 73.2007767 -604.04817302 69.0309728 -598.68359375 64.875 C-596.25295809 62.98957165 -593.85161533 61.07520473 -591.47265625 59.125 C-567.02709794 39.11891834 -539.99771637 22.3474467 -512.29736328 7.25292969 C-510.80145469 6.43709516 -509.30752682 5.61761485 -507.81591797 4.79394531 C-430.88975047 -37.60138329 -340.34834301 -58.90579406 0 0 Z M-292 71 C-293.02697231 72.12172274 -294.02037689 73.27419755 -295 74.4375 C-297.71731149 77.59470413 -300.53180735 80.57755004 -303.5 83.5 C-307.54849668 87.50767151 -311.3045513 91.66815309 -315 96 C-315.90428762 97.04093857 -316.80929531 98.08125183 -317.71484375 99.12109375 C-324.17825368 106.56624724 -330.41212025 114.15027092 -336.42626953 121.96240234 C-338.16875069 124.21849104 -339.92660968 126.46222148 -341.68359375 128.70703125 C-351.79502392 141.71154767 -361.03673858 155.18384108 -370 169 C-370.51836426 169.79809082 -371.03672852 170.59618164 -371.57080078 171.41845703 C-374.06601763 175.2671271 -376.54452402 179.12580457 -379 183 C-358.43535529 196.70976314 -316.0220502 201 -291 201 C-291 158.1 -291 115.2 -291 71 C-291.33 71 -291.66 71 -292 71 Z M-191 72 C-191 113.91 -191 155.82 -191 199 C-172.99873745 196.6206446 -172.99873745 196.6206446 -155.25 193.25 C-154.09532227 192.99758545 -152.94064453 192.7451709 -151.75097656 192.48510742 C-136.6946961 189.12801908 -121.37007502 185.68958712 -107 180 C-108.42726473 176.04209204 -110.31306634 172.7727976 -112.640625 169.2734375 C-112.99927139 168.73267075 -113.35791779 168.19190399 -113.72743225 167.63475037 C-114.8960077 165.87767668 -116.07224234 164.12593008 -117.25 162.375 C-117.85441422 161.47278214 -117.85441422 161.47278214 -118.47103882 160.55233765 C-129.10647093 144.68988697 -140.3836917 129.44677446 -152.56738281 114.73681641 C-154.62882132 112.23765595 -156.65416707 109.70954629 -158.6875 107.1875 C-162.52626775 102.49645537 -166.56220429 98.01234087 -170.6640625 93.55078125 C-172.64118858 91.39181248 -174.58167885 89.21102273 -176.5 87 C-179.42722152 83.63859729 -182.39044495 80.31052773 -185.375 77 C-186.22835937 76.05125 -187.08171875 75.1025 -187.9609375 74.125 C-188.63382813 73.42375 -189.30671875 72.7225 -190 72 C-190.33 72 -190.66 72 -191 72 Z M-445.1875 85.6875 C-445.79135529 85.97866699 -446.39521057 86.26983398 -447.0173645 86.56982422 C-466.53605284 96.0125125 -484.99258869 106.93115142 -503 119 C-503.99 119.66 -504.98 120.32 -506 121 C-504.60137556 124.38702483 -503.17258179 125.8567824 -500.0703125 127.76953125 C-499.27987549 128.26291992 -498.48943848 128.75630859 -497.67504883 129.26464844 C-496.83353271 129.77543945 -495.9920166 130.28623047 -495.125 130.8125 C-494.27252686 131.34004883 -493.42005371 131.86759766 -492.54174805 132.41113281 C-486.0931209 136.38495386 -479.58980976 140.26445914 -473 144 C-470.47216358 141.68309004 -468.81284489 139.25195613 -467.06640625 136.30859375 C-466.22601807 134.90504639 -466.22601807 134.90504639 -465.36865234 133.47314453 C-464.77262207 132.47138184 -464.1765918 131.46961914 -463.5625 130.4375 C-454.87108997 116.00286748 -445.61097157 102.04812188 -435.74365234 88.39111328 C-435.26750488 87.72708496 -434.79135742 87.06305664 -434.30078125 86.37890625 C-433.87966064 85.7969751 -433.45854004 85.21504395 -433.0246582 84.61547852 C-431.81852931 82.85740794 -431.81852931 82.85740794 -431 80 C-435.82653861 80 -440.92077644 83.62992966 -445.1875 85.6875 Z M-44 91 C-42.53294986 94.08771113 -40.82586285 96.9006285 -38.9453125 99.75390625 C-38.03084351 101.1469397 -38.03084351 101.1469397 -37.09790039 102.56811523 C-36.44684326 103.55626221 -35.79578613 104.54440918 -35.125 105.5625 C-28.29927997 115.96946821 -21.60824265 126.45388464 -15 137 C-9.70742933 135.02872519 -5.35928793 132.12681623 -0.6875 129 C0.14845703 128.4534375 0.98441406 127.906875 1.84570312 127.34375 C2.63525391 126.8178125 3.42480469 126.291875 4.23828125 125.75 C4.96055908 125.27046875 5.68283691 124.7909375 6.42700195 124.296875 C6.94609131 123.86890625 7.46518066 123.4409375 8 123 C8 122.34 8 121.68 8 121 C5.70167737 119.31373068 3.40651088 117.77021449 1 116.25 C0.25540527 115.77481934 -0.48918945 115.29963867 -1.25634766 114.81005859 C-7.88653721 110.62165047 -14.61573615 106.60091362 -21.375 102.625 C-22.35984375 102.04266602 -23.3446875 101.46033203 -24.359375 100.86035156 C-30.73986343 97.14624017 -37.2203278 93.92167247 -44 91 Z M-585 190 C-592.23300962 197.63872969 -598.9729154 205.50207295 -605.359375 213.86474609 C-606.63602936 215.52629655 -607.92497452 217.17840614 -609.21875 218.82666016 C-615.4719011 226.81772688 -621.27013152 235.04371057 -626.875 243.5 C-627.30787323 244.15096649 -627.74074646 244.80193298 -628.18673706 245.47262573 C-635.64408879 256.70789854 -642.58645868 268.13341082 -649 280 C-649.45101074 280.81597656 -649.90202148 281.63195312 -650.36669922 282.47265625 C-680.14661614 336.36112892 -695.59164375 396.12061562 -702 457 C-657.78 457 -613.56 457 -568 457 C-566.81895683 453.45687048 -566.55597767 450.02277171 -566.23828125 446.328125 C-566.09160085 444.71786491 -565.94410162 443.10767925 -565.79589844 441.49755859 C-565.67885559 440.21736847 -565.67885559 440.21736847 -565.55944824 438.91131592 C-559.41693832 372.71461296 -545.59242391 304.88632473 -519.45092773 243.49267578 C-518.93767944 242.26653564 -518.93767944 242.26653564 -518.4140625 241.015625 C-518.1145166 240.32758789 -517.8149707 239.63955078 -517.50634766 238.93066406 C-516.86931176 236.50169597 -516.99066672 235.30019729 -518 233 C-519.73893371 231.55879452 -519.73893371 231.55879452 -521.98828125 230.44140625 C-522.8297168 229.97992188 -523.67115234 229.5184375 -524.53808594 229.04296875 C-525.45364258 228.55441406 -526.36919922 228.06585938 -527.3125 227.5625 C-542.99359765 218.89902862 -557.75060944 209.01895224 -572.3203125 198.61328125 C-576.48206678 195.64379605 -580.71260661 192.78497349 -585 190 Z M82.703125 192.3515625 C81.6519751 193.12342896 81.6519751 193.12342896 80.57958984 193.91088867 C79.8108252 194.47654541 79.04206055 195.04220215 78.25 195.625 C62.95433519 206.77030733 47.12590869 217.10092734 31 227 C32.93068792 232.91435583 34.99139812 238.76149119 37.1875 244.58203125 C60.83757812 307.81622197 76.28571417 372.13577375 82.74487305 439.37207031 C82.82253403 440.17717041 82.90019501 440.98227051 82.98020935 441.81176758 C83.12433942 443.31753167 83.26592285 444.82354265 83.4044342 446.32983398 C83.74992408 449.97003276 84.28003862 453.40019308 85 457 C123.94 457 162.88 457 203 457 C203 369.82942543 158.73015119 274.56488375 103 209 C102.05955864 207.88570117 101.11947411 206.7711011 100.1796875 205.65625 C98.31650614 203.44838934 96.44928613 201.24406892 94.578125 199.04296875 C93.24031135 197.46394325 91.90446472 195.8829726 90.59570312 194.27978516 C89.41694497 192.83677885 88.21084934 191.41618568 87 190 C85.25110673 190 84.07146643 191.33838774 82.703125 192.3515625 Z M-67.66796875 271.90625 C-102.87002938 284.0694374 -138.76327545 292.44577336 -175.67871094 297.44018555 C-176.40362228 297.53834564 -177.12853363 297.63650574 -177.87541199 297.73764038 C-179.84755981 298.00271702 -181.8203666 298.26287786 -183.79321289 298.52270508 C-187.1554783 298.97011075 -187.1554783 298.97011075 -191 300 C-191 351.81 -191 403.62 -191 457 C-133.25 457 -75.5 457 -16 457 C-16.83823781 441.46228715 -16.83823781 441.46228715 -18.5090332 426.04150391 C-18.60866364 425.3123175 -18.70829407 424.5831311 -18.8109436 423.83184814 C-18.91458221 423.08296326 -19.01822083 422.33407837 -19.125 421.5625 C-19.2322641 420.77752136 -19.3395282 419.99254272 -19.45004272 419.18377686 C-26.27843745 369.65076903 -37.46612425 315.06775151 -60 270 C-62.81079516 270 -65.01342314 270.97498786 -67.66796875 271.90625 Z M-425 275 C-443.18499517 323.22391313 -456.978105 371.78723226 -463.9375 422.9375 C-464.09057114 424.05475464 -464.09057114 424.05475464 -464.24673462 425.19458008 C-465.67634388 435.79049014 -466.3704325 446.29735246 -467 457 C-408.92 457 -350.84 457 -291 457 C-291 405.52 -291 354.04 -291 301 C-302.88 299.68 -314.76 298.36 -327 297 C-356.11697146 292.41865834 -384.46515558 286.63524198 -412.59692383 277.84448242 C-414.38005981 277.28917847 -414.38005981 277.28917847 -416.19921875 276.72265625 C-417.24940186 276.39015869 -418.29958496 276.05766113 -419.3815918 275.71508789 C-422.02995326 274.86827387 -422.02995326 274.86827387 -425 275 Z " fill="#2CA8E0" transform="translate(2023,126)"/>
<path d="M0 0 C2.53387786 2.31110569 5.0160328 4.67395488 7.49121094 7.04760742 C8.28809326 7.80364258 8.28809326 7.80364258 9.10107422 8.57495117 C17.3935334 16.47581517 24.75094327 24.78611255 31.49121094 34.04760742 C31.90435547 34.61108887 32.3175 35.17457031 32.74316406 35.75512695 C64.22711786 79.25138167 76.61191204 134.90360427 68.9699707 187.85571289 C63.84208667 219.28904937 52.53381884 250.28186971 33.49121094 276.04760742 C32.72421875 277.0969043 31.95722656 278.14620117 31.16699219 279.22729492 C25.8473458 286.38425314 20.11252449 293.07796969 13.95068359 299.52075195 C12.96612666 300.55076517 11.98672954 301.58573201 11.01220703 302.62524414 C-24.7041441 340.62947542 -76.90321316 362.70790107 -128.79003906 364.33276367 C-178.43401353 365.22506774 -226.50407606 351.45469457 -265.50878906 320.04760742 C-266.01684082 319.64106934 -266.52489258 319.23453125 -267.04833984 318.81567383 C-279.78960168 308.55612013 -291.64651815 297.12916884 -301.50878906 284.04760742 C-301.95399902 283.46237305 -302.39920898 282.87713867 -302.85791016 282.27416992 C-336.177644 238.1032681 -350.29704283 182.48215628 -342.92114258 127.70068359 C-335.02256181 74.51690639 -307.41353468 24.16614589 -264.05957031 -8.37036133 C-235.63131943 -29.21147495 -204.37115744 -43.22433862 -169.50878906 -48.95239258 C-168.4460376 -49.1302832 -168.4460376 -49.1302832 -167.36181641 -49.31176758 C-108.0219718 -58.7633854 -44.6739894 -39.9603444 0 0 Z " fill="#2B3036" transform="translate(2398.5087890625,1889.952392578125)"/>
<path d="M0 0 C1.16660156 0.61359375 2.33320312 1.2271875 3.53515625 1.859375 C38.46821326 20.92093035 66.80445159 51.88275593 85 87 C85.3722168 87.70785645 85.74443359 88.41571289 86.12792969 89.14501953 C105.85912876 127.08510436 111.8345375 170.85801615 106 213 C105.8870459 213.81871582 105.7740918 214.63743164 105.65771484 215.48095703 C101.28820756 245.33048266 89.58242645 275.42968612 72 300 C71.29617188 300.99386719 70.59234375 301.98773437 69.8671875 303.01171875 C58.13566267 319.09526085 44.77509298 333.80639139 29 346 C28.46987305 346.41717285 27.93974609 346.8343457 27.39355469 347.26416016 C-15.24183344 380.6573443 -70.58075463 395.15096912 -124.24584961 389.1796875 C-163.11766483 384.11223408 -202.46534326 369.34300835 -232 343 C-232.88171875 342.21496094 -233.7634375 341.42992188 -234.671875 340.62109375 C-236.38390559 339.08381184 -238.09003225 337.53991929 -239.7890625 335.98828125 C-241.55080083 334.4039618 -243.33088787 332.90609002 -245.1875 331.4375 C-248.85904348 328.25549565 -251.86515024 324.70153414 -255 321 C-255.8146875 320.08476562 -256.629375 319.16953125 -257.46875 318.2265625 C-296.26386117 274.30890739 -310.30382446 217.94717071 -306.7890625 160.55566406 C-304.44895313 133.17461164 -295.20230899 106.00078362 -282 82 C-281.48832275 81.06945801 -281.48832275 81.06945801 -280.96630859 80.12011719 C-273.09634516 66.02236247 -263.4903336 53.24503848 -252.375 41.55078125 C-249.97897195 39.04358465 -249.97897195 39.04358465 -247.90234375 36.36328125 C-244.99958398 32.75718339 -241.52081695 29.98650767 -238 27 C-236.57300781 25.74123047 -236.57300781 25.74123047 -235.1171875 24.45703125 C-170.58996845 -32.08264423 -74.89533372 -40.32363164 0 0 Z " fill="#2B3036" transform="translate(1404,1864)"/>
<path d="M0 0 C101.97 0 203.94 0 309 0 C309 58.74 309 117.48 309 178 C218.91 178 128.82 178 36 178 C33.69 167.11 31.38 156.22 29 145 C27.989375 140.33875 26.97875 135.6775 25.9375 130.875 C23.53693258 119.7021463 21.32540568 108.50118106 19.17724609 97.27807617 C17.32903375 87.63803721 15.37202854 78.02622773 13.34765625 68.421875 C12.31894835 63.53960702 11.30965921 58.6536146 10.30859375 53.765625 C10.16108673 53.04576416 10.01357971 52.32590332 9.86160278 51.58422852 C9.25725044 48.63457402 8.65294524 45.68491007 8.04931641 42.73510742 C5.93893055 32.43057889 3.76868607 22.14231073 1.421875 11.88842773 C1.23238281 11.04223877 1.04289062 10.1960498 0.84765625 9.32421875 C0.68273682 8.60322998 0.51781738 7.88224121 0.34790039 7.1394043 C0 5 0 5 0 0 Z " fill="#FEFEFE" transform="translate(1415,1143)"/>
<path d="M0 0 C99.33 0 198.66 0 301 0 C299.79198847 7.85207493 298.56686551 15.57633979 296.94140625 23.33203125 C296.75158676 24.25231613 296.56176727 25.17260101 296.36619568 26.12077332 C295.76803556 29.01866148 295.16557902 31.91563191 294.5625 34.8125 C293.77018921 38.63110963 292.97993667 42.45013923 292.19140625 46.26953125 C292.00016678 47.19490189 291.80892731 48.12027252 291.6118927 49.07368469 C290.48370087 54.56057052 289.40625026 60.05371154 288.390625 65.5625 C287.11528997 72.46723327 285.68504314 79.32795008 284.1875 86.1875 C282.02342245 96.2003757 279.89303016 106.21941242 277.8125 116.25 C277.57490967 117.38977295 277.33731934 118.5295459 277.0925293 119.70385742 C275.28268543 128.45301868 273.6473346 137.21421545 272 146 C269.69 156.56 267.38 167.12 265 178 C177.55 178 90.1 178 0 178 C0 119.26 0 60.52 0 0 Z " fill="#FEFEFE" transform="translate(1824,1143)"/>
<path d="M0 0 C92.4 0 184.8 0 280 0 C272.06253178 29.48202483 272.06253178 29.48202483 268.06469727 43.0246582 C261.9267048 63.86227479 255.92074345 84.7358514 249.98828125 105.6328125 C249.68345448 106.70644609 249.3786277 107.78007969 249.06456375 108.88624763 C245.96647889 119.79994259 242.87265368 130.71483903 239.78363514 141.63110352 C238.61481623 145.76034674 237.44452428 149.88917163 236.27397728 154.01792526 C235.45484094 156.9096047 234.63795858 159.80191484 233.82112122 162.69424438 C233.32691337 164.43788016 232.83259132 166.18148357 232.33813477 167.92504883 C232.11436283 168.71988772 231.8905909 169.51472662 231.66003799 170.33365154 C230.11388446 175.77223108 230.11388446 175.77223108 229 178 C141.55 178 54.1 178 -36 178 C-34.87549705 166.75497052 -34.87549705 166.75497052 -33.765625 161.7421875 C-33.52384521 160.63472168 -33.28206543 159.52725586 -33.03295898 158.38623047 C-32.77458252 157.22752441 -32.51620605 156.06881836 -32.25 154.875 C-31.70389912 152.37511528 -31.15833499 149.87511324 -30.61328125 147.375 C-30.34080566 146.13234375 -30.06833008 144.8896875 -29.78759766 143.609375 C-28.64433746 138.37008215 -27.533358 133.12439279 -26.4375 127.875 C-26.23471436 126.90385254 -26.03192871 125.93270508 -25.82299805 124.93212891 C-24.32911002 117.7183242 -22.93488119 110.48777415 -21.5625 103.25 C-19.64369439 93.14142767 -17.55174111 83.07955503 -15.37133789 73.02441406 C-13.07288255 62.40763525 -10.87864449 51.77115054 -8.71142578 41.12695312 C-5.90484342 27.39529363 -2.93727326 13.70727521 0 0 Z " fill="#FEFEFE" transform="translate(2227,1143)"/>
<path d="M0 0 C118.14 0 236.28 0 358 0 C358 46.2 358 92.4 358 140 C249.1 140 140.2 140 28 140 C23.497066 120.487286 19.32131608 100.93066996 15.55743408 81.26412964 C13.95482879 72.89140043 12.31430908 64.53033801 10.5625 56.1875 C10.36809326 55.26018066 10.17368652 54.33286133 9.97338867 53.37744141 C9.17536184 49.57795232 8.37546698 45.77885882 7.57366943 41.98016357 C6.61894785 37.45551323 5.6697762 32.92974685 4.72628784 28.40274048 C4.41308399 26.90491283 4.0979731 25.40748246 3.78079224 23.91049194 C3.33336721 21.79808687 2.89261684 19.6843804 2.453125 17.5703125 C2.19692383 16.35102051 1.94072266 15.13172852 1.67675781 13.87548828 C0.87533955 9.28612557 0.46356904 4.63569035 0 0 Z " fill="#FEFEFE" transform="translate(1366,903)"/>
<path d="M0 0 C115.5 0 231 0 350 0 C348.87632964 12.36037391 348.87632964 12.36037391 347.6875 17.7109375 C347.42114746 18.93312988 347.15479492 20.15532227 346.88037109 21.41455078 C346.73750671 22.05684631 346.59464233 22.69914185 346.44744873 23.36090088 C345.64993042 26.95076674 344.87614114 30.54575133 344.1015625 34.140625 C343.93427643 34.91548248 343.76699036 35.69033997 343.59463501 36.48867798 C341.40721506 46.67757497 339.40078849 56.90301397 337.375 67.125 C334.86737396 79.76249786 332.33435917 92.38592973 329.53515625 104.96264648 C328.12280434 111.32887281 326.89379435 117.71285448 325.7734375 124.13671875 C324.70645088 129.46626301 323.31825425 134.726983 322 140 C215.74 140 109.48 140 0 140 C0 93.8 0 47.6 0 0 Z " fill="#FEFEFE" transform="translate(1824,903)"/>
<path d="M0 0 C87.45 0 174.9 0 265 0 C274.69178082 46.0359589 274.69178082 46.0359589 277.28393555 58.41430664 C277.64495169 60.13767932 278.00629441 61.8609836 278.36791992 63.58422852 C281.41218725 78.09129745 284.36212503 92.61128704 287.14282227 107.17163086 C289.69811517 120.53260052 292.43520293 133.83962022 295.36914062 147.12304688 C296.54218037 152.47254391 297.6816909 157.82893828 298.8125 163.1875 C299.03172119 164.21029053 299.25094238 165.23308105 299.47680664 166.28686523 C299.67653076 167.23762939 299.87625488 168.18839355 300.08203125 169.16796875 C300.25968018 170.00610107 300.4373291 170.8442334 300.62036133 171.70776367 C301 174 301 174 301 178 C218.83 178 136.66 178 52 178 C49.98041132 172.61443019 48.12720063 167.34003818 46.5300293 161.83666992 C46.30116122 161.05719781 46.07229315 160.2777257 45.83648968 159.47463322 C45.07955494 156.8940688 44.32689505 154.31227814 43.57421875 151.73046875 C43.03295406 149.88222486 42.49141296 148.0340619 41.94961548 146.18597412 C40.4938036 141.21741725 39.04165 136.24779837 37.59030533 131.27793503 C36.08116252 126.11191789 34.56919305 120.94672831 33.05737305 115.78149414 C31.20513903 109.45284623 29.35311468 103.12413766 27.50245667 96.79502869 C23.72241763 83.86969681 19.92774823 70.94877306 16.11778069 58.03223228 C14.57601674 52.80431824 13.03631177 47.57579728 11.49641514 42.34733295 C10.28698298 38.24173765 9.07610225 34.13657999 7.8621521 30.03231812 C6.73276907 26.21382364 5.60708217 22.39425958 4.48426437 18.57382965 C4.07510652 17.18424574 3.66452931 15.79507885 3.25242996 14.40636444 C2.69493343 12.52713263 2.14284304 10.64629951 1.59106445 8.76538086 C1.28167435 7.7171666 0.97228424 6.66895233 0.65351868 5.588974 C0 3 0 3 0 0 Z " fill="#FEFEFE" transform="translate(1048,1143)"/>
<path d="M0 0 C98.67 0 197.34 0 299 0 C298.38648566 4.2946004 297.86961282 7.89377501 296.70527649 11.9524231 C296.44331985 12.87408264 296.18136322 13.79574219 295.91146851 14.74533081 C295.62526642 15.73445465 295.33906433 16.72357849 295.04418945 17.74267578 C294.74156693 18.80236572 294.4389444 19.86205566 294.12715149 20.95385742 C293.12690673 24.45227953 292.12012026 27.94878305 291.11328125 31.4453125 C290.41123064 33.89595111 289.70959239 36.34670789 289.00834656 38.7975769 C287.34730239 44.59923646 285.68215595 50.39970304 284.01498908 56.19960487 C282.14137748 62.71851102 280.27281974 69.23886179 278.40478957 75.75936913 C275.19595346 86.95982858 271.98388834 98.15935687 268.76617432 109.35726929 C265.8333377 119.56846024 262.91865678 129.78470127 260 140 C164.96 140 69.92 140 -28 140 C-27.3821004 135.05680324 -26.74916375 130.38074847 -25.765625 125.53515625 C-25.52400635 124.33656982 -25.2823877 123.1379834 -25.03344727 121.90307617 C-24.77490967 120.63568604 -24.51637207 119.3682959 -24.25 118.0625 C-23.97750009 116.71661003 -23.70528768 115.37066181 -23.43334961 114.0246582 C-23.01919173 111.97533586 -22.60473637 109.92607722 -22.18907166 107.87705994 C-21.36159989 103.7976829 -20.54445098 99.71644997 -19.73828125 95.6328125 C-17.49902335 84.29749625 -15.15965447 72.98794854 -12.75 61.6875 C-8.3951147 41.14695765 -4.20774314 20.57118869 0 0 Z " fill="#FEFEFE" transform="translate(2276,903)"/>
<path d="M0 0 C84.81 0 169.62 0 257 0 C254.49388649 10.02445404 251.94859588 19.97423119 249.10522461 29.8984375 C248.7349093 31.19808477 248.3648145 32.49779488 247.99491882 33.79756165 C247.00570731 37.27088565 246.01323586 40.74326951 245.01991343 44.21541977 C244.18631105 47.13044504 243.35436777 50.04594278 242.52240473 52.96143627 C240.55987345 59.83874042 238.59466998 66.71527688 236.62768555 73.59130859 C234.6052392 80.66138124 232.5871513 87.73268755 230.57120126 94.80461502 C228.83082201 100.90931063 227.08786692 107.01326669 225.34283644 113.11663437 C224.30458357 116.74806503 223.26725652 120.37975321 222.23237419 124.012146 C221.26101998 127.42109838 220.28642941 130.82910939 219.30940437 134.23644066 C218.78419333 136.07100666 218.26221454 137.90649706 217.74035645 139.74201965 C217.42227524 140.8489769 217.10419403 141.95593414 216.776474 143.09643555 C216.36807738 144.52538399 216.36807738 144.52538399 215.95143032 145.98320007 C214.77801066 149.70388488 213.36984992 153.34706689 212 157 C131.48 157 50.96 157 -32 157 C-30.83485321 148.84397245 -29.70828572 141.02967674 -27.875 133.0625 C-25.53063474 122.56432673 -23.34006292 112.0387483 -21.1875 101.5 C-20.84515081 99.82624971 -20.50278413 98.15250299 -20.16040039 96.47875977 C-19.1055518 91.31945497 -18.05261261 86.15976138 -17 81 C-15.60589938 74.16631167 -14.21039522 67.33291317 -12.8125 60.5 C-12.56064941 59.26790802 -12.56064941 59.26790802 -12.30371094 58.01092529 C-10.14676764 47.46624726 -7.92183911 36.94051178 -5.59008789 26.43286133 C-4.17691247 19.99969442 -2.96372571 13.54534927 -1.89916992 7.04541016 C-1.0959537 2.19190739 -1.0959537 2.19190739 0 0 Z " fill="#FEFEFE" transform="translate(2170,1421)"/>
<path d="M0 0 C94.71 0 189.42 0 287 0 C289.31 11.55 291.62 23.1 294 35 C295.809637 43.72406873 295.809637 43.72406873 297.6328125 52.4453125 C298.7041793 57.56226406 299.75736839 62.68277435 300.8046875 67.8046875 C300.96620804 68.59441452 301.12772858 69.38414154 301.29414368 70.19779968 C301.96986712 73.50233051 302.64543663 76.80689251 303.32028198 80.11160278 C305.27662803 89.68735253 307.25770565 99.25709126 309.29296875 108.81640625 C309.47906204 109.69214294 309.66515533 110.56787964 309.85688782 111.47015381 C310.75332386 115.68713067 311.65399299 119.90312522 312.56176758 124.11767578 C312.88508688 125.63440633 313.20825593 127.15116891 313.53125 128.66796875 C313.68083664 129.35468155 313.83042328 130.04139435 313.98454285 130.74891663 C314.66214487 133.94997233 315 136.70172404 315 140 C224.58 140 134.16 140 41 140 C36.08706999 124.03297746 31.20810107 108.07189039 26.5234375 92.0390625 C25.94407004 90.06142232 25.36452665 88.08383367 24.78482056 86.10629272 C23.28313166 80.98222819 21.78339368 75.85759506 20.28424072 70.73278809 C17.88043031 62.51655536 15.47368654 54.30118167 13.06666946 46.08588791 C12.2408176 43.26608562 11.41590738 40.44600934 10.59115601 37.62588501 C10.07178216 35.85163303 9.55230383 34.07741164 9.03271484 32.30322266 C8.78408377 31.45358759 8.53545269 30.60395252 8.27928734 29.72857094 C6.96512017 25.24890949 5.63351687 20.77513223 4.27960205 16.30731201 C3.8605532 14.92263513 3.8605532 14.92263513 3.43303871 13.50998497 C2.89693193 11.74233063 2.3584039 9.9754083 1.81712914 8.20932961 C0 2.21978001 0 2.21978001 0 0 Z " fill="#FEFEFE" transform="translate(977,903)"/>
<path d="M0 0 C83.16 0 166.32 0 252 0 C252 51.81 252 103.62 252 157 C196.8699273 157.04030303 196.8699273 157.04030303 173.84570312 157.04882812 C157.92032511 157.05477194 141.99495339 157.06177588 126.06958008 157.07543945 C114.47349956 157.08538389 102.8774233 157.09185285 91.28133863 157.09408849 C85.13716475 157.09539601 78.99300307 157.09848444 72.84883308 157.10573006 C67.0730259 157.11248649 61.297236 157.11461774 55.52142525 157.11310768 C53.39488125 157.11338418 51.26833671 157.11539153 49.14179611 157.11920547 C46.25194416 157.12413683 43.36215859 157.12300036 40.4723053 157.12025452 C39.61920951 157.12316736 38.76611373 157.1260802 37.88716656 157.12908131 C32.11412121 157.11412121 32.11412121 157.11412121 31 156 C30.59223493 154.2320635 30.23861922 152.4516174 29.90625 150.66796875 C29.68533691 149.50007813 29.46442383 148.3321875 29.23681641 147.12890625 C29.11767883 146.49098145 28.99854126 145.85305664 28.87579346 145.19580078 C28.21681057 141.67409008 27.54241748 138.15534528 26.8671875 134.63671875 C26.72058685 133.87249603 26.57398621 133.10827332 26.42294312 132.32089233 C24.56832352 122.69814991 22.5970148 113.09924491 20.625 103.5 C20.43450073 102.57261017 20.24400146 101.64522034 20.04772949 100.68972778 C19.27334516 96.92126654 18.49858819 93.15288251 17.72290039 89.38468933 C16.41342013 83.02121811 15.11414631 76.65573173 13.8203125 70.2890625 C10.88234468 55.84910231 7.93887946 41.42355587 4.59204102 27.0715332 C0 7.19801133 0 7.19801133 0 0 Z " fill="#FEFEFE" transform="translate(1472,1421)"/>
<path d="M0 0 C79.53 0 159.06 0 241 0 C245.58170777 20.61768495 245.58170777 20.61768495 247.4375 30.0625 C247.64576416 31.11139404 247.85402832 32.16028809 248.06860352 33.2409668 C248.91997692 37.52916488 249.76677188 41.81826135 250.61328125 46.10742188 C253.15029452 58.94798259 255.7874542 71.76058012 258.55395508 84.55371094 C261.15928524 96.64640664 263.63709851 108.76462438 266.10864258 120.88525391 C266.34781151 122.05719299 266.34781151 122.05719299 266.59181213 123.25280762 C266.90893731 124.80685145 267.22570394 126.36096849 267.542099 127.91516113 C268.38628097 132.04906573 269.24811162 136.17855452 270.13183594 140.30419922 C270.41013748 141.60725258 270.41013748 141.60725258 270.69406128 142.93663025 C271.05166401 144.60644844 271.41183544 146.27571919 271.77493286 147.9443512 C272.43291831 151.01875568 273 153.84605249 273 157 C198.09 157 123.18 157 46 157 C37.75 128.95 29.5 100.9 21 72 C10.82336405 37.61922451 10.82336405 37.61922451 0.62901306 3.24371338 C0 1 0 1 0 0 Z " fill="#FEFEFE" transform="translate(1129,1421)"/>
<path d="M0 0 C0.93714844 0.76054688 1.87429687 1.52109375 2.83984375 2.3046875 C3.70480469 3.00335937 4.56976562 3.70203125 5.4609375 4.421875 C12.31654804 10.26144342 17.69184277 16.97744498 22.83984375 24.3046875 C23.55269531 25.31273437 24.26554687 26.32078125 25 27.359375 C40.00730229 50.08719697 44.15537004 78.18796149 39.71484375 104.8046875 C35.56412378 123.36655202 27.85596949 139.49837663 15.83984375 154.3046875 C14.79183594 155.60212891 14.79183594 155.60212891 13.72265625 156.92578125 C-2.63706688 176.13197636 -28.5914974 189.70284813 -53.77587891 192.12597656 C-83.15219701 194.32784681 -111.04496704 187.83845748 -134.078125 168.90625 C-136.49536428 166.75679941 -138.84449267 164.5626813 -141.16015625 162.3046875 C-142.04703125 161.4590625 -142.93390625 160.6134375 -143.84765625 159.7421875 C-144.99234375 158.535625 -144.99234375 158.535625 -146.16015625 157.3046875 C-146.66675781 156.78132813 -147.17335938 156.25796875 -147.6953125 155.71875 C-168.10706134 133.67964078 -175.05668549 105.35392906 -174.29199219 76.11621094 C-173.18866292 52.58669275 -162.45474809 30.76333249 -147.16015625 13.3046875 C-146.19916016 12.05365234 -146.19916016 12.05365234 -145.21875 10.77734375 C-141.47284257 6.27799005 -136.76557347 2.88393122 -132.16015625 -0.6953125 C-131.37511719 -1.30761719 -130.59007813 -1.91992188 -129.78125 -2.55078125 C-118.80871698 -10.66414323 -106.35160487 -16.33246784 -93.16015625 -19.6953125 C-92.1340625 -19.99308594 -91.10796875 -20.29085938 -90.05078125 -20.59765625 C-58.94335974 -28.6721903 -24.91860741 -19.4502665 0 0 Z " fill="#ADB5B5" transform="translate(2328.16015625,1961.6953125)"/>
<path d="M0 0 C1.77164971 1.53790882 3.52113661 3.10164451 5.25 4.6875 C5.7342041 5.12400879 6.2184082 5.56051758 6.71728516 6.01025391 C22.52326471 20.39547125 33.29155772 38.88958934 38.25 59.6875 C38.5490625 60.83476563 38.848125 61.98203125 39.15625 63.1640625 C40.92406545 70.67727816 41.52715737 77.80006348 41.5625 85.5 C41.56797852 86.35924072 41.57345703 87.21848145 41.57910156 88.10375977 C41.51150129 94.16855339 40.58984554 99.78413437 39.25 105.6875 C39.00121094 106.94433594 38.75242187 108.20117188 38.49609375 109.49609375 C32.73146654 135.36729509 17.05376865 159.71917959 -5.41015625 174.24609375 C-6.18230469 174.72175781 -6.95445312 175.19742188 -7.75 175.6875 C-8.51183594 176.19410156 -9.27367187 176.70070313 -10.05859375 177.22265625 C-33.35678836 192.18093883 -63.36139806 196.23204819 -90.24609375 190.78125 C-118.00246724 184.4119311 -142.41158933 167.11826119 -157.578125 142.99853516 C-172.60348484 118.43631927 -178.57394674 89.42369337 -172.1875 60.9375 C-167.34158856 41.67594545 -157.8218566 25.53635014 -144.75 10.6875 C-143.94369141 9.75550781 -143.94369141 9.75550781 -143.12109375 8.8046875 C-106.72887812 -30.4149935 -41.06367402 -32.42796575 0 0 Z " fill="#ADB5B5" transform="translate(1370.75,1961.3125)"/>
<path d="M0 0 C80.52 0 161.04 0 244 0 C242.7672274 8.62940817 241.49619441 16.92796468 239.5625 25.375 C238.12823899 31.798266 236.73129468 38.21042946 235.5625 44.6875 C234.30956912 51.55439191 232.85894853 58.36704425 231.375 65.1875 C229.45527505 74.01897125 227.61307484 82.86141455 225.85546875 91.7265625 C225.66692322 92.6766066 225.47837769 93.6266507 225.28411865 94.60548401 C224.35364077 99.30049693 223.42873813 103.99652783 222.51123047 108.6940918 C219.31482617 124.88546244 215.64036681 140.87837555 212 157 C142.04 157 72.08 157 0 157 C0 105.19 0 53.38 0 0 Z " fill="#FEFEFE" transform="translate(1824,1421)"/>
</svg>
